<mxfile host="Electron" modified="2024-05-17T07:49:12.459Z" agent="Mozilla/5.0 (Windows NT 10.0; Win64; x64) AppleWebKit/537.36 (KHTML, like Gecko) draw.io/24.4.0 Chrome/120.0.6099.109 Electron/28.1.0 Safari/537.36" etag="C5zat7OXMBLpm5DQMXgc" version="24.4.0" type="device">
  <diagram name="Страница — 1" id="iW2YnklHtWerdvTFRIqD">
    <mxGraphModel dx="2261" dy="884" grid="1" gridSize="10" guides="1" tooltips="1" connect="1" arrows="1" fold="1" page="1" pageScale="1" pageWidth="827" pageHeight="1169" math="0" shadow="0">
      <root>
        <mxCell id="0" />
        <mxCell id="1" parent="0" />
        <mxCell id="soWChxD6S1IUgYi2SDI3-12" value="Внесение средств в фонды" style="edgeStyle=orthogonalEdgeStyle;rounded=0;orthogonalLoop=1;jettySize=auto;html=1;exitX=1;exitY=0.25;exitDx=0;exitDy=0;entryX=0;entryY=0.25;entryDx=0;entryDy=0;" edge="1" parent="1" source="soWChxD6S1IUgYi2SDI3-2" target="soWChxD6S1IUgYi2SDI3-5">
          <mxGeometry relative="1" as="geometry">
            <mxPoint as="offset" />
          </mxGeometry>
        </mxCell>
        <mxCell id="soWChxD6S1IUgYi2SDI3-13" value="Получение информации об&lt;br&gt;аккаунте" style="edgeStyle=orthogonalEdgeStyle;rounded=0;orthogonalLoop=1;jettySize=auto;html=1;entryX=0;entryY=0.5;entryDx=0;entryDy=0;startArrow=classic;startFill=1;endArrow=none;endFill=0;" edge="1" parent="1" source="soWChxD6S1IUgYi2SDI3-2" target="soWChxD6S1IUgYi2SDI3-5">
          <mxGeometry relative="1" as="geometry" />
        </mxCell>
        <mxCell id="soWChxD6S1IUgYi2SDI3-14" value="Получение информации об&lt;br&gt;счетах и операциях" style="edgeStyle=orthogonalEdgeStyle;rounded=0;orthogonalLoop=1;jettySize=auto;html=1;exitX=1;exitY=0.75;exitDx=0;exitDy=0;entryX=0;entryY=0.75;entryDx=0;entryDy=0;startArrow=classic;startFill=1;endArrow=none;endFill=0;" edge="1" parent="1" source="soWChxD6S1IUgYi2SDI3-2" target="soWChxD6S1IUgYi2SDI3-5">
          <mxGeometry relative="1" as="geometry" />
        </mxCell>
        <mxCell id="soWChxD6S1IUgYi2SDI3-2" value="Клиент&lt;br&gt;обменного пункта" style="rounded=1;whiteSpace=wrap;html=1;" vertex="1" parent="1">
          <mxGeometry x="-90" y="360" width="100" height="200" as="geometry" />
        </mxCell>
        <mxCell id="soWChxD6S1IUgYi2SDI3-9" value="Взаимодействие с клиентскими аккаунтами&lt;br&gt;и счётными фондами" style="edgeStyle=orthogonalEdgeStyle;rounded=0;orthogonalLoop=1;jettySize=auto;html=1;entryX=1;entryY=0.5;entryDx=0;entryDy=0;" edge="1" parent="1" source="soWChxD6S1IUgYi2SDI3-3" target="soWChxD6S1IUgYi2SDI3-5">
          <mxGeometry relative="1" as="geometry" />
        </mxCell>
        <mxCell id="soWChxD6S1IUgYi2SDI3-10" value="Регистрация клиента в системе" style="edgeStyle=orthogonalEdgeStyle;rounded=0;orthogonalLoop=1;jettySize=auto;html=1;exitX=0;exitY=0.25;exitDx=0;exitDy=0;entryX=1;entryY=0.25;entryDx=0;entryDy=0;" edge="1" parent="1" source="soWChxD6S1IUgYi2SDI3-3" target="soWChxD6S1IUgYi2SDI3-5">
          <mxGeometry relative="1" as="geometry" />
        </mxCell>
        <mxCell id="soWChxD6S1IUgYi2SDI3-3" value="Сотрудник обменного пункта" style="rounded=1;whiteSpace=wrap;html=1;" vertex="1" parent="1">
          <mxGeometry x="740" y="360" width="100" height="200" as="geometry" />
        </mxCell>
        <mxCell id="soWChxD6S1IUgYi2SDI3-6" value="Курс валютных обменов" style="edgeStyle=orthogonalEdgeStyle;rounded=0;orthogonalLoop=1;jettySize=auto;html=1;entryX=0.5;entryY=1;entryDx=0;entryDy=0;" edge="1" parent="1" source="soWChxD6S1IUgYi2SDI3-4" target="soWChxD6S1IUgYi2SDI3-5">
          <mxGeometry relative="1" as="geometry" />
        </mxCell>
        <mxCell id="soWChxD6S1IUgYi2SDI3-4" value="ЦБ РФ" style="rounded=1;whiteSpace=wrap;html=1;" vertex="1" parent="1">
          <mxGeometry x="250" y="640" width="180" height="60" as="geometry" />
        </mxCell>
        <mxCell id="soWChxD6S1IUgYi2SDI3-11" value="Получение курсов валютных обменов и пошлин" style="edgeStyle=orthogonalEdgeStyle;rounded=0;orthogonalLoop=1;jettySize=auto;html=1;exitX=1;exitY=0.75;exitDx=0;exitDy=0;entryX=0;entryY=0.75;entryDx=0;entryDy=0;" edge="1" parent="1" source="soWChxD6S1IUgYi2SDI3-5" target="soWChxD6S1IUgYi2SDI3-3">
          <mxGeometry relative="1" as="geometry" />
        </mxCell>
        <mxCell id="soWChxD6S1IUgYi2SDI3-5" value="Система &lt;br&gt;&quot;Обменный пункт&quot;" style="swimlane;whiteSpace=wrap;html=1;startSize=50;rounded=1;" vertex="1" parent="1">
          <mxGeometry x="250" y="360" width="180" height="200" as="geometry" />
        </mxCell>
      </root>
    </mxGraphModel>
  </diagram>
</mxfile>
